<svg xmlns="http://www.w3.org/2000/svg" viewBox="0 0 512 512">
  <!-- Fondo -->
  <rect width="512" height="512" rx="96" fill="#4F46E5"/>

  <!-- Columnas Kanban (izquierda) -->
  <rect x="72" y="160" width="80" height="220" rx="12" fill="#6366F1" opacity="0.6"/>
  <rect x="72" y="172" width="80" height="52" rx="8" fill="white"/>
  <rect x="72" y="234" width="80" height="52" rx="8" fill="white" opacity="0.7"/>
  <rect x="72" y="296" width="80" height="52" rx="8" fill="white" opacity="0.4"/>

  <rect x="168" y="160" width="80" height="220" rx="12" fill="#6366F1" opacity="0.6"/>
  <rect x="168" y="172" width="80" height="52" rx="8" fill="white"/>
  <rect x="168" y="234" width="80" height="52" rx="8" fill="white" opacity="0.7"/>

  <rect x="264" y="160" width="80" height="220" rx="12" fill="#6366F1" opacity="0.6"/>
  <rect x="264" y="172" width="80" height="52" rx="8" fill="white"/>

  <!-- Burbuja de chat (derecha, superpuesta) -->
  <rect x="290" y="268" width="158" height="118" rx="22" fill="#818CF8"/>
  <polygon points="310,386 310,410 334,386" fill="#818CF8"/>

  <!-- Líneas del mensaje -->
  <rect x="310" y="292" width="108" height="10" rx="5" fill="white" opacity="0.9"/>
  <rect x="310" y="312" width="80" height="10" rx="5" fill="white" opacity="0.7"/>
  <rect x="310" y="332" width="95" height="10" rx="5" fill="white" opacity="0.5"/>

  <!-- Punto de notificación -->
  <circle cx="432" cy="270" r="18" fill="#EF4444"/>
  <rect x="430" y="259" width="4" height="12" rx="2" fill="white"/>
  <circle cx="432" cy="276" r="2.5" fill="white"/>
</svg>
