<svg xmlns="http://www.w3.org/2000/svg" viewBox="0 0 220 48">
  <defs>
    <linearGradient id="bg" x1="0%" y1="0%" x2="100%" y2="100%">
      <stop offset="0%" stop-color="#4338CA"/>
      <stop offset="100%" stop-color="#7C3AED"/>
    </linearGradient>
    <linearGradient id="bubble" x1="0%" y1="0%" x2="100%" y2="100%">
      <stop offset="0%" stop-color="#ffffff"/>
      <stop offset="100%" stop-color="#EEF2FF"/>
    </linearGradient>
  </defs>

  <!-- Ícono cuadrado -->
  <rect x="0" y="0" width="48" height="48" rx="11" fill="url(#bg)"/>
  <path d="M8.5 9.5 C8.5 6.96 10.96 4.5 13.5 4.5 L34.5 4.5 C37.04 4.5 39.5 6.96 39.5 9.5 L39.5 27.5 C39.5 30.04 37.04 32.5 34.5 32.5 L21 32.5 L13.5 39.5 L15.5 32.5 L13.5 32.5 C10.96 32.5 8.5 30.04 8.5 27.5 Z" fill="url(#bubble)"/>
  <path d="M14 12 L18.5 26 L24 17 L29.5 26 L34 12"
        stroke="#4338CA"
        stroke-width="3.2"
        fill="none"
        stroke-linecap="round"
        stroke-linejoin="round"/>

  <!-- Wordmark: Work -->
  <text x="58" y="22"
        font-family="'Inter', 'Helvetica Neue', Arial, sans-serif"
        font-size="17"
        font-weight="300"
        letter-spacing="-0.3"
        fill="#1E293B">Work</text>

  <!-- Wordmark: Chat -->
  <text x="58" y="40"
        font-family="'Inter', 'Helvetica Neue', Arial, sans-serif"
        font-size="17"
        font-weight="700"
        letter-spacing="-0.3"
        fill="#4338CA">Chat</text>
</svg>
